<mxfile host="app.diagrams.net" modified="2021-08-04T03:36:24.229Z" agent="5.0 (Windows NT 10.0; Win64; x64) AppleWebKit/537.36 (KHTML, like Gecko) Chrome/92.0.4515.107 Safari/537.36 Edg/92.0.902.62" etag="aw-84Hp8rhFiljkjioA9" version="14.7.5" type="github">
  <diagram id="5wl_F4BXtGGc8KKAU3A9" name="Page-1">
    <mxGraphModel dx="1176" dy="722" grid="1" gridSize="1" guides="1" tooltips="1" connect="1" arrows="1" fold="1" page="1" pageScale="1" pageWidth="850" pageHeight="1100" math="0" shadow="0">
      <root>
        <mxCell id="0" />
        <mxCell id="1" parent="0" />
        <mxCell id="O0hRT9Uv4mfkEZLhKqkv-10" value="" style="whiteSpace=wrap;html=1;aspect=fixed;fillColor=#fad7ac;strokeColor=#b46504;" vertex="1" parent="1">
          <mxGeometry x="169" y="86" width="468" height="468" as="geometry" />
        </mxCell>
        <mxCell id="O0hRT9Uv4mfkEZLhKqkv-11" value="" style="whiteSpace=wrap;html=1;aspect=fixed;fillColor=#d5e8d4;strokeColor=#82b366;" vertex="1" parent="1">
          <mxGeometry x="216" y="131" width="372" height="372" as="geometry" />
        </mxCell>
        <mxCell id="O0hRT9Uv4mfkEZLhKqkv-13" value="&lt;font style=&quot;font-size: 15px&quot;&gt;&lt;br&gt;&lt;br&gt;&lt;br&gt;&lt;br&gt;&lt;br&gt;&lt;br&gt;PIC2-NET&lt;/font&gt;" style="rounded=0;whiteSpace=wrap;html=1;fillColor=#dae8fc;strokeColor=#6c8ebf;" vertex="1" parent="1">
          <mxGeometry x="454" y="339" width="128" height="140" as="geometry" />
        </mxCell>
        <mxCell id="O0hRT9Uv4mfkEZLhKqkv-12" value="&lt;font style=&quot;font-size: 15px&quot;&gt;A-EIC2&lt;/font&gt;" style="rounded=0;whiteSpace=wrap;html=1;strokeColor=#10739e;fillColor=#b1ddf0;" vertex="1" parent="1">
          <mxGeometry x="468" y="348" width="98" height="93" as="geometry" />
        </mxCell>
        <mxCell id="O0hRT9Uv4mfkEZLhKqkv-4" value="&lt;font style=&quot;font-size: 15px&quot;&gt;&lt;br&gt;&lt;br&gt;&lt;br&gt;&lt;br&gt;&lt;br&gt;&lt;br&gt;&lt;br&gt;&lt;br&gt;PIC-MAC&lt;/font&gt;" style="rounded=0;whiteSpace=wrap;html=1;fillColor=#dae8fc;strokeColor=#6c8ebf;" vertex="1" parent="1">
          <mxGeometry x="222" y="238" width="108" height="164" as="geometry" />
        </mxCell>
        <mxCell id="O0hRT9Uv4mfkEZLhKqkv-3" value="&lt;font style=&quot;font-size: 15px&quot;&gt;A-EIC&lt;/font&gt;" style="rounded=0;whiteSpace=wrap;html=1;strokeColor=#10739e;fillColor=#b1ddf0;" vertex="1" parent="1">
          <mxGeometry x="237" y="248" width="78" height="116" as="geometry" />
        </mxCell>
        <mxCell id="O0hRT9Uv4mfkEZLhKqkv-5" value="&lt;font style=&quot;font-size: 15px&quot;&gt;D-EIC&lt;/font&gt;" style="rounded=0;whiteSpace=wrap;html=1;strokeColor=#10739e;fillColor=#b1ddf0;" vertex="1" parent="1">
          <mxGeometry x="352" y="262" width="78" height="116" as="geometry" />
        </mxCell>
        <mxCell id="O0hRT9Uv4mfkEZLhKqkv-7" value="&lt;font style=&quot;font-size: 15px&quot;&gt;&lt;br&gt;&lt;br&gt;&lt;br&gt;&lt;br&gt;&lt;br&gt;&lt;br&gt;PIC1-NET&lt;/font&gt;" style="rounded=0;whiteSpace=wrap;html=1;fillColor=#dae8fc;strokeColor=#6c8ebf;" vertex="1" parent="1">
          <mxGeometry x="453" y="161" width="128" height="140" as="geometry" />
        </mxCell>
        <mxCell id="O0hRT9Uv4mfkEZLhKqkv-6" value="&lt;font style=&quot;font-size: 15px&quot;&gt;A-EIC1&lt;/font&gt;" style="rounded=0;whiteSpace=wrap;html=1;strokeColor=#10739e;fillColor=#b1ddf0;" vertex="1" parent="1">
          <mxGeometry x="467" y="170" width="98" height="93" as="geometry" />
        </mxCell>
      </root>
    </mxGraphModel>
  </diagram>
</mxfile>
